<svg width="28" height="28" viewBox="0 0 28 28" fill="none" xmlns="http://www.w3.org/2000/svg">
<g clip-path="url(#clip0_1_45)">
<path d="M4 18V11M8 18V11M12 18V11M16 18V11M20 18V11M1 22H23M12.37 2.15003L21.37 5.75C21.72 5.89 22 6.31 22 6.68V10C22 10.55 21.55 11 21 11H3C2.45 11 2 10.55 2 10V6.68C2 6.31 2.28 5.89 2.63 5.75L11.63 2.15003C11.83 2.07003 12.17 2.07003 12.37 2.15003ZM22 22H2V19C2 18.45 2.45 18 3 18H21C21.55 18 22 18.45 22 19V22ZM13.5 7C13.5 7.82843 12.8284 8.5 12 8.5C11.1716 8.5 10.5 7.82843 10.5 7C10.5 6.17157 11.1716 5.5 12 5.5C12.8284 5.5 13.5 6.17157 13.5 7Z" stroke="#5C5C5C" stroke-width="2.5" stroke-miterlimit="10" stroke-linecap="round" stroke-linejoin="round"/>
</g>
<defs>
<clipPath id="clip0_1_45">
<rect width="28" height="28" fill="white"/>
</clipPath>
</defs>
</svg>
