<svg width="17" height="17" viewBox="0 0 17 17" fill="none" xmlns="http://www.w3.org/2000/svg">
<path d="M7.3877 2.22128L8.12481 1.48417C8.43691 1.17206 8.9416 1.17206 9.25039 1.48417L15.7051 7.93554C16.0172 8.24765 16.0172 8.75234 15.7051 9.06113L9.25039 15.5158C8.93828 15.8279 8.43359 15.8279 8.12481 15.5158L7.3877 14.7787C7.07227 14.4633 7.07891 13.9486 7.40098 13.6398L11.402 9.82812H1.85938C1.41777 9.82812 1.0625 9.47285 1.0625 9.03124V7.96874C1.0625 7.52714 1.41777 7.17187 1.85938 7.17187H11.402L7.40098 3.36015C7.07559 3.05136 7.06895 2.53671 7.3877 2.22128Z" fill="white"/>
</svg>
