<svg width="20" height="20" viewBox="0 0 20 20" fill="none" xmlns="http://www.w3.org/2000/svg">
<g clip-path="url(#clip0_110_55)">
<path d="M8.91667 2.18781C8.68235 1.68959 8.31108 1.26835 7.84626 0.973295C7.38143 0.678241 6.84223 0.521561 6.29167 0.521561C5.7411 0.521561 5.2019 0.678241 4.73708 0.973295C4.27225 1.26835 3.90099 1.68959 3.66667 2.18781H1.25C0.918479 2.18781 0.600537 2.3195 0.366116 2.55392C0.131696 2.78834 0 3.10629 0 3.43781H0C0 3.76933 0.131696 4.08727 0.366116 4.32169C0.600537 4.55611 0.918479 4.68781 1.25 4.68781H3.6625C3.89682 5.18602 4.26808 5.60726 4.73291 5.90232C5.19774 6.19737 5.73693 6.35405 6.2875 6.35405C6.83807 6.35405 7.37726 6.19737 7.84209 5.90232C8.30692 5.60726 8.67818 5.18602 8.9125 4.68781H18.75C19.0815 4.68781 19.3995 4.55611 19.6339 4.32169C19.8683 4.08727 20 3.76933 20 3.43781C20 3.10629 19.8683 2.78834 19.6339 2.55392C19.3995 2.3195 19.0815 2.18781 18.75 2.18781H8.91667Z" fill="#5C5C5C"/>
<path d="M13.7125 7.08281C13.162 7.08379 12.623 7.24091 12.1582 7.53592C11.6935 7.83094 11.3219 8.25174 11.0867 8.74948H1.25C0.918479 8.74948 0.600537 8.88117 0.366116 9.11559C0.131696 9.35001 0 9.66796 0 9.99948H0C0 10.331 0.131696 10.6489 0.366116 10.8834C0.600537 11.1178 0.918479 11.2495 1.25 11.2495H11.0833C11.3177 11.7477 11.6889 12.1689 12.1537 12.464C12.6186 12.759 13.1578 12.9157 13.7083 12.9157C14.2589 12.9157 14.7981 12.759 15.2629 12.464C15.7278 12.1689 16.099 11.7477 16.3333 11.2495H18.75C19.0815 11.2495 19.3995 11.1178 19.6339 10.8834C19.8683 10.6489 20 10.331 20 9.99948C20 9.66796 19.8683 9.35001 19.6339 9.11559C19.3995 8.88117 19.0815 8.74948 18.75 8.74948H16.3375C16.1023 8.25187 15.7309 7.83115 15.2663 7.53614C14.8016 7.24114 14.2629 7.08395 13.7125 7.08281Z" fill="#5C5C5C"/>
<path d="M6.2875 13.6453C5.73713 13.6465 5.19836 13.8037 4.73373 14.0987C4.2691 14.3937 3.89765 14.8144 3.6625 15.312H1.25C0.918479 15.312 0.600537 15.4437 0.366116 15.6781C0.131696 15.9125 0 16.2305 0 16.562H0C0 16.8935 0.131696 17.2114 0.366116 17.4459C0.600537 17.6803 0.918479 17.812 1.25 17.812H3.6625C3.89682 18.3102 4.26808 18.7314 4.73291 19.0265C5.19774 19.3215 5.73693 19.4782 6.2875 19.4782C6.83807 19.4782 7.37726 19.3215 7.84209 19.0265C8.30692 18.7314 8.67818 18.3102 8.9125 17.812H18.75C19.0815 17.812 19.3995 17.6803 19.6339 17.4459C19.8683 17.2114 20 16.8935 20 16.562C20 16.2305 19.8683 15.9125 19.6339 15.6781C19.3995 15.4437 19.0815 15.312 18.75 15.312H8.91667C8.68121 14.8137 8.30912 14.3926 7.84368 14.0975C7.37823 13.8025 6.83858 13.6457 6.2875 13.6453Z" fill="#5C5C5C"/>
</g>
<defs>
<clipPath id="clip0_110_55">
<rect width="20" height="20" fill="white"/>
</clipPath>
</defs>
</svg>
